<?xml version="1.0" encoding="UTF-8" standalone="no" ?>
<!DOCTYPE svg PUBLIC "-//W3C//DTD SVG 1.1//EN" "http://www.w3.org/Graphics/SVG/1.1/DTD/svg11.dtd">
<svg xmlns="http://www.w3.org/2000/svg" xmlns:xlink="http://www.w3.org/1999/xlink" version="1.1" width="1080" height="1080" viewBox="0 0 1080 1080" xml:space="preserve">
<desc>Created with Fabric.js 5.2.4</desc>
<defs>
</defs>
<rect x="0" y="0" width="100%" height="100%" fill="transparent"></rect>
<g transform="matrix(1 0 0 1 540 540)" id="2978b988-de7d-4ceb-b8fb-4086a17b866c"  >
</g>
<g transform="matrix(1 0 0 1 540 540)" id="30453c63-cc68-42e2-a6d1-3eecf94dd3de"  >
<rect style="stroke: none; stroke-width: 1; stroke-dasharray: none; stroke-linecap: butt; stroke-dashoffset: 0; stroke-linejoin: miter; stroke-miterlimit: 4; fill: rgb(255,255,255); fill-rule: nonzero; opacity: 1; visibility: hidden;" vector-effect="non-scaling-stroke"  x="-540" y="-540" rx="0" ry="0" width="1080" height="1080" />
</g>
<g transform="matrix(1 0 0 1 437.06 417.28)"  >
<path style="stroke: none; stroke-width: 1; stroke-dasharray: none; stroke-linecap: butt; stroke-dashoffset: 0; stroke-linejoin: miter; stroke-miterlimit: 4; fill: rgb(31,129,226); fill-rule: nonzero; opacity: 1;" vector-effect="non-scaling-stroke"  transform=" translate(-388.92, -415.72)" d="M 213.065826 632.846436 C 209.042191 631.41571 204.798355 630.412903 201.034988 628.476379 C 188.223419 621.883789 179.142822 611.66803 173.043716 597.946045 C 172.564987 597.022583 172.300262 596.715942 172.035553 596.409363 C 171.833099 595.430969 171.63063 594.452576 171.222504 592.911377 C 170.758652 591.519287 170.500473 590.690002 170.242294 589.860779 C 170.198639 589.430664 170.154984 589.000488 169.996368 587.893494 C 169.545013 585.492981 169.208618 583.769409 168.872223 582.045776 C 168.922119 581.262207 168.972031 580.478577 169.342194 578.985718 C 169.774246 577.126099 169.983719 575.975891 169.983887 574.825623 C 169.998566 468.152008 170.000946 361.478394 169.961746 254.80481 C 169.961166 253.212189 169.431473 251.619766 169.084213 249.646973 C 169.038559 248.496429 169.057419 247.726196 169.076279 246.955948 C 169.076279 246.955948 169.2453 246.751328 169.388718 246.471863 C 169.364822 245.766296 169.197525 245.340195 169.030212 244.914108 C 169.030212 244.914108 168.995895 244.488541 169.279831 244.132874 C 169.681412 243.195496 169.799042 242.613754 169.916672 242.032028 C 174.183701 226.75296 182.105042 213.934006 196.031296 205.806015 C 201.680573 202.50885 208.182724 200.673004 215.008469 198.427124 C 217.537323 198.786118 219.354492 198.98111 221.171707 198.981339 C 333.549316 198.995926 445.926941 198.993103 558.304565 199.001389 C 561.851807 199.001663 565.399048 199.101166 568.946289 199.154419 C 583.454224 202.613205 594.114075 211.32988 602.521179 224.027649 C 603.067139 224.760178 603.326172 224.981796 603.585144 225.2034 C 603.585144 225.2034 603.52832 225.36322 603.614685 225.77179 C 605.395142 230.875244 607.089172 235.570114 608.827942 240.642349 C 608.864563 242.028976 608.856506 243.038239 608.720398 244.140182 C 608.421692 244.550552 608.515137 244.794815 608.950073 245.430878 C 608.980469 275.941986 608.933472 305.987885 608.750488 336.123596 C 608.42511 336.536743 608.515381 336.787598 608.959717 337.43158 C 608.984558 346.278625 608.934937 354.660034 608.658569 363.263855 C 608.582275 364.642517 608.732666 365.798798 608.955933 367.421631 C 608.981079 393.607086 608.933411 419.326019 608.636719 445.340515 C 608.550354 448.409241 608.712891 451.182404 608.951843 454.4216 C 608.977112 471.940735 608.925964 488.993835 608.639282 506.305054 C 608.265015 508.704559 608.126343 510.845947 607.891113 513.262207 C 607.155273 513.943787 606.51593 514.350525 605.547363 514.527832 C 587.783264 514.2052 570.348328 514.087891 552.913452 514.084106 C 551.959412 514.083923 551.005066 515.029053 550.071899 515.653992 C 550.093018 515.773804 549.998657 515.998169 549.714294 515.967346 C 548.937805 516.182922 548.445679 516.429321 547.722412 516.771912 C 547.355225 516.964661 547.219116 517.061279 546.755615 517.252441 C 539.465149 523.525269 538.804199 530.421265 545.265869 537.107666 C 557.263916 549.522888 569.624512 561.586853 581.762756 573.867676 C 588.619507 580.805054 595.334045 587.882996 602.112671 594.897583 C 595.112244 613.936584 582.175049 626.774048 561.950195 632.504883 C 556.167419 632.543335 551.057251 632.975952 545.946594 632.981506 C 498.152985 633.033264 450.359222 633.010315 402.565521 633.01178 C 343.447845 633.01355 284.3302 633.021545 225.21254 633.013977 C 221.163635 633.013489 217.114731 632.904846 213.065826 632.846436 M 317.313538 432.710419 C 317.525391 432.407104 317.737244 432.10379 317.982483 431.950287 C 317.982483 431.950287 317.831116 431.975708 318.344086 431.655853 C 318.536346 431.30658 318.728607 430.957275 318.984802 430.248444 C 319.123199 430.011475 319.329163 429.904175 320.192108 429.653992 C 320.436707 429.305206 320.681305 428.956451 321.154602 428.066162 C 322.299622 427.011841 323.444641 425.957489 325.331238 424.891693 C 331.232697 419.380524 337.163635 413.900085 342.992157 408.312866 C 343.604797 407.725616 343.613922 406.508789 344.154663 405.104553 C 344.755402 404.732697 345.35614 404.36084 346.686188 403.967224 C 348.395386 402.855408 350.104614 401.743591 351.883148 400.69046 C 351.883148 400.69046 351.799866 400.726593 352.596039 400.881348 C 360.847321 397.975922 369.130005 396.593781 377.631378 399.994781 C 379.730865 400.834717 381.99707 401.258057 384.05719 401.914978 C 384.05719 401.914978 384.034485 401.780823 384.353088 402.33316 C 384.935913 402.539368 385.518707 402.745575 386.028809 402.975281 C 386.028809 402.975281 386.04599 402.900818 386.119781 403.585144 C 387.053223 404.063202 387.986633 404.54126 389.559784 405.241974 C 391.79422 407.206177 393.868256 409.401215 396.295502 411.087982 C 401.863434 414.957275 407.780487 415.062866 413.569092 411.613617 C 419.293671 408.202637 422.770233 402.905823 421.683929 396.343567 C 420.911621 391.678223 417.986908 387.369171 415.891785 382.31427 C 415.494324 381.912872 415.096832 381.511475 414.886353 381.076935 C 414.886353 381.076935 414.894226 381.266693 414.682617 380.726379 C 414.364441 380.521759 414.046234 380.317108 413.902496 380.09845 C 413.902496 380.09845 413.889679 380.27298 413.681152 379.730133 C 413.359619 379.530853 413.038055 379.331604 412.903564 379.128632 C 412.903564 379.128632 412.87674 379.313812 412.647278 378.733032 C 412.097168 378.488861 411.547028 378.24472 410.454498 377.855896 C 409.94455 377.328094 409.434601 376.800293 408.865204 375.541962 C 407.882568 375.041504 406.899933 374.541046 405.98114 374.007233 C 405.98114 374.007233 405.96524 374.077454 405.864777 373.375275 C 404.876373 372.933716 403.88797 372.492157 402.971039 372.022491 C 402.971039 372.022491 402.955444 372.097687 402.874481 371.397247 C 402.464508 370.899292 402.154236 370.224152 401.630066 369.929077 C 385.814728 361.025421 368.992706 358.483765 351.251709 362.189575 C 350.092468 362.431763 349.1203 363.569672 347.689178 364.740662 C 347.118652 364.803101 346.548126 364.86557 345.501343 364.439392 C 340.732025 366.74353 335.962708 369.047668 331.068939 371.213013 C 331.068939 371.213013 331.218781 371.102234 330.698792 371.318665 C 330.483582 371.618927 330.268372 371.91922 329.707642 372.779907 C 327.107574 374.850616 324.273773 376.688599 321.944183 379.028564 C 301.721985 399.341217 281.34967 419.51297 261.502777 440.18811 C 243.514404 458.927185 236.921188 481.590912 242.752472 506.890167 C 249.68515 536.967896 269.082886 555.276611 299.315948 563.092163 C 299.872314 563.393921 300.39682 563.855713 300.989777 563.973816 C 313.182373 566.400757 325.029114 564.820312 336.596252 560.657104 C 338.185272 560.085144 339.512421 558.785583 340.960999 557.933411 C 340.960999 557.933411 340.851318 557.918945 341.49057 557.889343 C 341.983429 557.543701 342.476288 557.19812 343.237122 556.364197 C 343.764404 556.226929 344.291718 556.089722 345.471161 555.887573 C 345.964539 555.515686 346.457947 555.143738 347.317627 554.219055 C 351.378357 551.0979 355.648773 548.210449 359.450684 544.800659 C 365.116394 539.719177 370.451538 534.269043 376.370178 528.733948 C 376.574585 528.471008 376.779022 528.208069 377.265564 527.362488 C 378.857025 525.911133 380.448486 524.459778 382.651123 522.905823 C 382.997894 522.461792 383.344666 522.017761 383.724854 521.704346 C 383.724854 521.704346 383.597809 521.659424 384.278625 521.651306 C 384.757782 520.971741 385.236938 520.292114 385.787628 519.743774 C 385.787628 519.743774 385.638855 519.75824 386.216919 519.633057 C 386.394562 519.2995 386.572174 518.965942 386.791779 518.777527 C 386.791779 518.777527 386.641541 518.760986 387.218842 518.634033 C 387.399292 518.301636 387.579712 517.969177 387.800262 517.78656 C 387.800262 517.78656 387.646057 517.770264 388.221375 517.637146 C 388.403564 517.305481 388.585785 516.973816 388.805634 516.793701 C 388.805634 516.793701 388.650452 516.776733 389.224152 516.639709 C 389.4086 516.309204 389.593018 515.97876 389.811951 515.802917 C 389.811951 515.802917 389.654541 515.78479 390.226685 515.642212 C 390.410034 515.311157 390.593384 514.980164 390.809845 514.803284 C 390.809845 514.803284 390.653412 514.783447 391.226227 514.641846 C 391.4086 514.310242 391.590973 513.978577 391.811707 513.796753 C 391.811707 513.796753 391.657776 513.781799 392.230133 513.644775 C 392.423706 513.319031 392.617249 512.993347 392.755829 512.786438 C 392.755829 512.786438 392.665405 512.691772 393.4039 512.813293 C 395.23175 510.752441 397.059631 508.69162 399.085815 506.15683 C 399.614777 505.73941 400.143707 505.321991 401.227478 504.679993 C 401.458313 504.363647 401.689148 504.047272 402.200378 503.173523 C 403.707245 501.754883 405.214111 500.336243 407.257324 498.697784 C 407.474396 498.386108 407.691498 498.074432 407.895538 497.924316 C 407.895538 497.924316 407.73761 497.887817 408.275269 497.672638 C 408.445984 497.339203 408.616699 497.005798 408.805969 496.848083 C 408.805969 496.848083 408.631653 496.819275 409.253204 496.603546 C 409.485809 496.020142 409.718384 495.436707 410.093842 494.276184 C 410.6922 493.505188 411.290527 492.734161 412.640411 491.847473 C 415.897583 488.081421 415.979584 484.754852 412.957794 482.044189 C 412.957794 482.044189 412.972717 482.123505 412.656403 481.633911 C 412.317627 481.454468 411.978851 481.275055 411.297821 481.151398 C 411.297821 481.151398 410.990662 480.990509 410.422119 480.449005 C 409.787903 480.304779 409.130981 479.971558 408.522827 480.044556 C 398.540344 481.24292 388.576874 482.374817 378.819427 478.589203 C 378.486389 478.459961 377.657623 479.608337 376.776764 480.761047 C 363.803558 493.416595 350.907288 506.152374 337.828461 518.697815 C 329.919342 526.284302 320.345398 530.229004 309.328461 529.354187 C 294.874146 528.206482 284.207123 520.814392 278.275146 507.662781 C 272.070862 493.90744 272.934143 480.047607 282.552124 468.231506 C 290.482971 458.488159 299.941223 449.988068 309.258423 440.675415 C 309.483917 440.355011 309.709412 440.034607 310.187561 439.133881 C 312.007782 437.396973 313.827972 435.660095 316.201996 433.707764 C 316.459717 433.415253 316.717438 433.122742 316.954712 432.981293 C 316.954712 432.981293 316.804962 432.95282 317.313538 432.710419 M 432.71994 316.699707 C 432.71994 316.699707 432.60376 316.679871 433.191467 316.608521 C 433.348236 316.271088 433.504974 315.933655 433.722778 315.695587 C 433.722778 315.695587 433.607086 315.681061 434.194977 315.608856 C 434.357361 315.27243 434.519745 314.936005 434.706665 314.740967 C 434.706665 314.740967 434.572266 314.690735 435.190155 314.608429 C 435.46405 314.085297 435.737976 313.562164 436.000427 312.995117 C 436.000427 312.995117 436.042023 313.013275 436.756744 312.978241 C 437.45282 312.243134 438.148926 311.507996 438.896484 310.863281 C 438.896484 310.863281 438.794647 310.842133 439.467834 310.862061 C 439.869843 310.417877 440.271851 309.973694 440.710449 309.488831 C 440.710449 309.488831 440.65567 309.490295 441.352081 309.745239 C 442.138245 309.020966 442.924408 308.296722 443.862762 307.597412 C 443.862762 307.597412 443.712952 307.634033 444.392548 307.787933 C 444.825012 307.361481 445.257507 306.935028 445.759033 306.531555 C 445.759033 306.531555 445.731995 306.599121 446.398956 306.775482 C 446.817627 306.352264 447.236267 305.929047 447.76767 305.528046 C 447.76767 305.528046 447.769379 305.642944 448.469543 305.764008 C 448.949493 305.325958 449.429443 304.887909 450.523346 304.071289 C 467.683075 298.596558 486.185059 305.235901 494.551453 320.392151 C 495.070343 320.918274 495.589264 321.444397 496.61795 322.265564 C 496.790131 322.819153 496.962311 323.372742 496.623993 324.356201 C 497.415283 331.562561 498.515228 338.75415 498.860565 345.981812 C 499.020142 349.322784 497.70697 352.7341 497.048615 356.029327 C 497.048615 356.029327 497.133789 356.027252 496.52536 356.280029 C 495.988464 357.84198 495.451569 359.403931 494.797577 361.634277 C 486.043457 370.77475 477.289337 379.915253 467.923798 389.269135 C 467.62323 389.565918 467.322662 389.862701 467.070404 390.009399 C 467.070404 390.009399 467.217987 390.064911 466.69809 390.297302 C 466.487427 390.605469 466.276794 390.913635 466.012421 391.071167 C 466.012421 391.071167 466.165588 391.025452 465.643066 391.370483 C 465.452484 391.738647 465.261902 392.106842 464.878326 392.920654 C 464.373627 393.305267 463.868927 393.68985 462.796173 394.328522 C 462.553741 394.656616 462.31134 394.984711 461.98703 395.704742 C 461.83432 395.960327 461.609222 396.08197 460.764435 396.321075 C 460.530762 396.639709 460.297058 396.958344 459.82489 397.834808 C 458.632904 398.90918 457.440948 399.983521 455.724701 401.314453 C 455.50293 401.627411 455.281128 401.940369 454.791687 402.847504 C 447.921844 409.627991 441.239319 416.612244 434.138 423.140961 C 423.650116 432.783112 411.53183 437.651428 397.10141 433.93692 C 389.648682 432.018555 383.682129 427.680023 378.36264 422.162262 C 372.813904 416.406769 365.232605 415.182739 358.743622 418.444092 C 352.161285 421.75238 348.41748 428.536896 350.212158 436.401337 C 351.157867 440.545502 353.561951 444.819 356.455994 447.983887 C 381.6492 475.534607 428.759735 476.27536 455.661682 449.721893 C 472.722351 432.882141 489.534027 415.787476 506.740112 399.098663 C 516.743835 389.395752 525.762878 379.134369 531.690796 365.852325 C 532.062012 365.540497 532.64563 365.298218 532.773804 364.90683 C 537.344849 350.947723 538.278625 336.809998 534.573792 322.511688 C 534.33313 321.582733 533.108826 320.908661 532.053223 319.498627 C 528.627014 308.523865 523.146912 298.651947 514.91394 290.656464 C 509.84256 285.731384 503.889832 281.713867 497.895081 276.81192 C 497.556305 276.560272 497.21756 276.308624 497.016388 276.209686 C 497.016388 276.209686 496.866974 276.350861 496.549316 275.691315 C 495.627411 275.479614 494.705536 275.267914 493.344116 275.062134 C 493.344116 275.062134 492.972687 274.827057 492.816711 274.157257 C 492.068115 273.5578 491.403992 272.774017 490.558258 272.386597 C 478.151947 266.703583 464.958679 266.205933 451.729828 267.266968 C 447.422089 267.612488 443.280975 270.035095 438.502838 271.899658 C 428.092773 275.363861 419.032562 280.966949 411.315765 288.797394 C 398.259918 302.045471 384.994659 315.09079 372.118896 328.51059 C 367.927521 332.879059 364.676971 338.150238 360.334534 343.396759 C 358.871124 346.419678 357.120667 349.471741 361.661011 352.030121 C 361.661011 352.030121 362.026764 352.32605 362.138672 352.941406 C 363.190735 353.303589 364.354828 354.160309 365.277496 353.951324 C 374.327484 351.901062 383.366852 351.085083 392.521729 353.270782 C 393.295532 353.455536 394.234161 352.94986 395.737671 352.813354 C 397.070129 351.851105 398.402618 350.888824 400.266479 349.684387 C 400.48587 349.370728 400.705261 349.057068 401.167023 348.187683 C 402.336914 347.089752 403.506775 345.991791 405.405884 344.890564 C 409.173309 340.817719 412.940735 336.744873 416.806091 332.767548 C 416.806091 332.767548 416.684479 332.8302 417.245453 332.65921 C 417.437714 332.332581 417.629974 332.005981 417.846161 331.84494 C 417.846161 331.84494 417.679901 331.826416 418.242249 331.655701 C 418.426819 331.32486 418.611359 330.994049 418.824249 330.821808 C 418.824249 330.821808 418.664459 330.801605 419.233246 330.648224 C 419.420441 330.318573 419.607666 329.988922 419.728607 329.773224 C 419.728607 329.773224 419.645844 329.670624 420.403992 329.796509 C 421.146606 328.740021 421.889191 327.683533 422.744354 326.690887 C 422.744354 326.690887 422.647034 326.776123 423.222351 326.638794 C 423.40509 326.306519 423.58783 325.974243 423.800659 325.800537 C 423.800659 325.800537 423.641174 325.775848 424.216766 325.637115 C 424.387238 325.300354 424.557678 324.963562 424.762604 324.765198 C 424.762604 324.765198 424.62326 324.734833 425.205902 324.624847 C 425.371887 324.287415 425.537872 323.949982 425.750031 323.739166 C 425.750031 323.739166 425.617279 323.715912 426.202118 323.619415 C 426.368805 323.282959 426.535461 322.946503 426.726593 322.757355 C 426.726593 322.757355 426.584442 322.711609 427.19754 322.614471 C 427.468201 322.091034 427.738861 321.567596 428.237152 320.498962 C 428.834229 320.001129 429.431305 319.503296 430.642578 318.905121 C 430.983032 318.457367 431.323486 318.009644 431.740479 317.674835 C 431.740479 317.674835 431.604156 317.681915 432.191711 317.608978 C 432.348724 317.271545 432.505768 316.934082 432.71994 316.699707 z" stroke-linecap="round" />
</g>
<g transform="matrix(1.05 0 0 1.05 718.73 441.81)"  >
<path style="stroke: none; stroke-width: 1; stroke-dasharray: none; stroke-linecap: butt; stroke-dashoffset: 0; stroke-linejoin: miter; stroke-miterlimit: 4; fill: rgb(183,183,183); fill-rule: nonzero; opacity: 1;" vector-effect="non-scaling-stroke"  transform=" translate(-678.22, -446.41)" d="M 605.876648 514.757263 C 606.51593 514.350525 607.155273 513.943787 608.059692 513.216797 C 608.324829 512.896545 608.673645 512.911072 609.026184 512.680298 C 609.588623 510.497894 609.981567 508.546387 609.982178 506.594757 C 610.008728 418.894897 610.001038 331.195007 609.993713 243.495132 C 609.993591 242.165558 609.946167 240.835983 609.920776 239.506393 C 609.541565 239.759247 609.162415 240.0121 608.783264 240.264969 C 607.089172 235.570114 605.395142 230.875244 603.664368 225.840546 C 608.855591 229.976883 614.340393 234.188644 619.267029 238.97493 C 640.887268 259.979187 662.342529 281.153198 683.864502 302.258667 C 700.628052 318.697754 717.419006 335.108978 734.164307 351.566681 C 743.540894 360.782227 748.076172 371.984772 748.056702 385.160736 C 747.99707 425.475861 748.0448 465.791107 748.044678 506.106323 C 748.044617 513.895203 749.083252 514.921082 757.057312 514.917419 C 771.883972 514.910645 786.710632 514.897766 801.537292 514.904846 C 808.59198 514.908203 812.662231 517.243896 814.736694 522.6427 C 816.944214 528.387878 814.677002 532.789185 810.661011 536.960938 C 787.688477 560.824829 764.834961 584.803345 741.927124 608.729614 C 726.500977 624.841492 711.049927 640.929504 695.618408 657.036194 C 694.699097 657.995728 693.819946 658.998535 692.97998 660.028503 C 685.932434 668.670288 675.630615 669.368774 667.852966 661.477966 C 647.511169 640.840088 627.265564 620.107422 606.975464 599.418579 C 605.576416 597.992004 604.126465 596.615234 602.406433 595.056458 C 595.334045 587.882996 588.619507 580.805054 581.762756 573.867676 C 569.624512 561.586853 557.263916 549.522888 545.265869 537.107666 C 538.804199 530.421265 539.465149 523.525269 546.892395 517.366821 C 547.555542 517.14978 547.754578 516.91272 547.953552 516.67572 C 548.445679 516.429321 548.937805 516.182922 550.022339 516.24646 C 567.974731 516.68866 585.334717 516.840515 602.694946 516.886658 C 603.444885 516.888611 604.19751 515.916504 605.172852 515.226562 C 605.556824 514.955688 605.716736 514.856445 605.876648 514.757263 z" stroke-linecap="round" />
</g>
<g transform="matrix(1 0 0 1 672.58 794.17)"  >
<path style="stroke: none; stroke-width: 1; stroke-dasharray: none; stroke-linecap: butt; stroke-dashoffset: 0; stroke-linejoin: miter; stroke-miterlimit: 4; fill: rgb(11,165,73); fill-rule: nonzero; opacity: 1;" vector-effect="non-scaling-stroke"  transform=" translate(-720.13, -741.87)" d="M 692.055908 734.017395 C 692.377319 733.608765 692.69873 733.200073 693.27124 732.385498 C 693.638977 731.663635 693.755615 731.347595 693.872253 731.031616 C 694.917114 729.339539 695.961975 727.647522 697.325256 725.420715 C 698.465454 723.270142 699.287231 721.654297 700.109009 720.038391 C 710.312622 702.833191 720.358215 685.53064 730.847107 668.501099 C 733.068787 664.894043 736.909851 662.284302 740.443115 659.516113 C 750.187744 676.565186 759.49408 693.31311 768.546143 710.266785 C 765.627747 715.037659 762.941528 719.590149 760.303345 724.170349 C 752.148804 738.327393 744.012634 752.495056 735.602905 766.847778 C 735.084045 767.638855 734.831543 768.240723 734.561646 768.789429 C 734.544189 768.736267 734.436768 768.767395 734.259705 768.959351 C 733.766296 769.762268 733.449951 770.373291 732.995361 771.249268 C 732.794189 771.897156 732.731323 772.280029 732.661621 772.692749 C 732.654846 772.722595 732.668518 772.782349 732.351929 772.830627 C 731.299561 774.212219 730.563782 775.545532 729.847717 776.925293 C 729.867432 776.971802 729.883911 776.872192 729.611084 777.033936 C 728.859131 778.128845 728.380066 779.062134 727.658569 780.227112 C 718.771362 795.105469 710.126526 809.752197 701.146851 824.22583 C 699.570496 822.658691 698.329041 821.264648 697.087585 819.870544 C 697.087585 819.870544 697.041016 819.95459 697.01062 819.630737 C 696.39093 818.456665 695.801697 817.606567 695.212402 816.756409 C 695.212402 816.756409 695.164551 816.890442 695.121338 816.522339 C 694.080444 814.687195 693.082825 813.220215 692.085083 811.753174 C 691.881836 811.26593 691.678589 810.778687 691.204956 809.868835 C 690.680542 809.19751 690.426453 808.948792 690.172424 808.700012 C 690.172424 808.700012 690.199341 808.833923 690.160095 808.474976 C 689.118469 806.62085 688.116089 805.12561 687.113708 803.630432 C 686.93927 803.151245 686.764832 802.672058 686.279297 801.754761 C 685.347229 800.438171 684.726379 799.55957 684.105469 798.68103 C 683.921387 798.195923 683.737305 797.710876 683.252991 796.787231 C 682.352051 795.499512 681.751404 794.650391 681.150757 793.801208 C 681.150757 793.801208 681.118225 793.898987 681.078491 793.557251 C 680.059937 791.760864 679.081055 790.306213 678.102173 788.851501 C 678.102173 788.851501 678.064087 788.936829 678.029785 788.600403 C 677.370728 787.364075 676.746033 786.464233 676.121216 785.564331 C 675.954346 785.097473 675.787415 784.630615 675.304321 783.732117 C 674.365784 782.395264 673.743469 781.490051 673.121155 780.584778 C 672.841858 779.879578 672.5625 779.174377 672.11853 777.791016 C 670.485596 771.309204 674.079834 766.898621 676.097595 762.054199 C 676.097595 762.054199 676.016907 762.031616 676.289734 761.893677 C 676.773621 761.18988 676.984619 760.623901 677.195679 760.057983 C 677.489075 759.660583 677.782471 759.263184 678.366333 758.397827 C 679.475647 756.307373 680.294434 754.684998 681.113281 753.062561 C 681.113281 753.062561 681.036621 753.051758 681.252441 752.971558 C 681.757385 752.676636 681.873352 752.391602 681.816162 752.036255 C 682.232056 751.367126 682.64801 750.697998 683.365356 749.532227 C 684.145081 748.035645 684.623413 747.035706 685.101746 746.035706 C 685.751221 745.045776 686.400696 744.055847 687.353699 742.557007 C 688.156372 741.050232 688.655518 740.052368 689.154663 739.054443 C 689.460449 738.66217 689.766296 738.269897 690.357178 737.419312 C 691.113525 735.979736 691.584717 734.998596 692.055908 734.017395 z" stroke-linecap="round" />
</g>
<g transform="matrix(1 0 0 1 755.03 767.02)"  >
<path style="stroke: none; stroke-width: 1; stroke-dasharray: none; stroke-linecap: butt; stroke-dashoffset: 0; stroke-linejoin: miter; stroke-miterlimit: 4; fill: rgb(253,203,45); fill-rule: nonzero; opacity: 1;" vector-effect="non-scaling-stroke"  transform=" translate(-802.57, -714.72)" d="M 768.800415 710.061096 C 759.49408 693.31311 750.187744 676.565186 740.770996 659.471313 C 742.276245 658.795349 743.888367 658.198669 745.50824 658.176819 C 760.320557 657.976562 775.134766 657.924011 789.94696 657.722107 C 795.482361 657.646667 799.417786 659.911865 802.240601 664.687927 C 822.465027 698.907227 842.766907 733.080811 863.016052 767.285522 C 863.769958 768.55896 864.233948 770.004028 864.366699 771.726929 C 843.980347 771.741211 824.060303 771.397644 804.058594 770.776978 C 803.886963 770.329651 803.796875 770.159485 803.600952 769.676636 C 791.930237 749.596252 780.365295 729.828674 768.800415 710.061096 z" stroke-linecap="round" />
</g>
<g transform="matrix(1 0 0 1 750.98 850.89)"  >
<path style="stroke: none; stroke-width: 1; stroke-dasharray: none; stroke-linecap: butt; stroke-dashoffset: 0; stroke-linejoin: miter; stroke-miterlimit: 4; fill: rgb(35,121,236); fill-rule: nonzero; opacity: 1;" vector-effect="non-scaling-stroke"  transform=" translate(-798.51, -798.6)" d="M 804.140198 771.054138 C 824.060303 771.397644 843.980347 771.741211 864.354248 772.088135 C 863.913391 775.195679 863.584717 778.623535 862.026245 781.348083 C 855.28656 793.131226 848.187134 804.708557 840.93689 816.89563 C 840.414856 817.93988 840.1745 818.44928 839.934204 818.958618 C 839.934143 818.958618 840.00177 818.988708 839.728088 819.144165 C 838.932312 820.186646 838.410217 821.073547 837.888062 821.960449 C 836.789795 822.916077 835.691467 823.871704 834.173889 824.775269 C 833.623352 824.952271 833.492126 825.181335 833.36084 825.4104 C 833.36084 825.4104 833.301147 825.407654 832.86499 825.277954 C 828.480286 825.43158 824.532959 825.938293 820.583008 825.959595 C 803.979797 826.049072 787.370483 825.761292 770.775513 826.140625 C 766.151917 826.246338 763.561951 824.299438 761.634705 820.884216 C 753.107544 805.773315 744.754333 790.564148 736.210876 775.462646 C 735.524597 774.249573 733.871948 773.583252 732.668396 772.662842 C 732.731323 772.280029 732.794189 771.897156 733.453369 771.282959 C 757.413208 771.052429 780.776672 771.053284 804.140198 771.054138 z" stroke-linecap="round" />
</g>
<g transform="matrix(1 0 0 1 719.64 852.5)"  >
<path style="stroke: none; stroke-width: 1; stroke-dasharray: none; stroke-linecap: butt; stroke-dashoffset: 0; stroke-linejoin: miter; stroke-miterlimit: 4; fill: rgb(24,110,221); fill-rule: nonzero; opacity: 1;" vector-effect="non-scaling-stroke"  transform=" translate(-767.18, -800.21)" d="M 732.661621 772.692749 C 733.871948 773.583252 735.524597 774.249573 736.210876 775.462646 C 744.754333 790.564148 753.107544 805.773315 761.634705 820.884216 C 763.561951 824.299438 766.151917 826.246338 770.775513 826.140625 C 787.370483 825.761292 803.979797 826.049072 820.583008 825.959595 C 824.532959 825.938293 828.480286 825.43158 832.871216 825.248718 C 832.944702 825.655884 832.575867 825.962585 831.647583 826.56366 C 828.136902 827.162415 825.184082 827.743958 822.234741 827.726501 C 802.169922 827.607788 782.105835 827.362915 762.041504 827.158813 C 761.576782 827.11792 761.112061 827.076965 759.838745 827.043091 C 755.390503 827.039246 751.749878 827.078613 748.111389 827.008972 C 733.411438 826.727539 718.712219 826.412537 704.012695 826.109863 C 703.342773 825.725769 702.672791 825.341736 701.720093 824.787598 C 701.437439 824.617432 701.48175 824.398865 701.48175 824.398865 C 710.126526 809.752197 718.771362 795.105469 728.01178 780.164734 C 729.032898 778.871155 729.458374 777.871704 729.883911 776.872192 C 729.883911 776.872192 729.867432 776.971802 730.205139 776.90918 C 731.251404 775.491821 731.959961 774.137085 732.668579 772.782349 C 732.668518 772.782349 732.654846 772.722595 732.661621 772.692749 z" stroke-linecap="round" />
</g>
<g transform="matrix(1 0 0 1 646.09 866.6)"  >
<path style="stroke: none; stroke-width: 1; stroke-dasharray: none; stroke-linecap: butt; stroke-dashoffset: 0; stroke-linejoin: miter; stroke-miterlimit: 4; fill: rgb(240,240,239); fill-rule: nonzero; opacity: 1;" vector-effect="non-scaling-stroke"  transform=" translate(-693.62, -814.31)" d="M 692.068726 812.142517 C 693.082825 813.220215 694.080444 814.687195 695.175537 816.476196 C 694.199402 815.376099 693.125854 813.953979 692.068726 812.142517 z" stroke-linecap="round" />
</g>
<g transform="matrix(1 0 0 1 641.12 858.53)"  >
<path style="stroke: none; stroke-width: 1; stroke-dasharray: none; stroke-linecap: butt; stroke-dashoffset: 0; stroke-linejoin: miter; stroke-miterlimit: 4; fill: rgb(240,240,239); fill-rule: nonzero; opacity: 1;" vector-effect="non-scaling-stroke"  transform=" translate(-688.65, -806.23)" d="M 687.089355 804.029053 C 688.116089 805.12561 689.118469 806.62085 690.218994 808.44043 C 689.233093 807.319092 688.149048 805.873413 687.089355 804.029053 z" stroke-linecap="round" />
</g>
<g transform="matrix(1 0 0 1 651.72 874.85)"  >
<path style="stroke: none; stroke-width: 1; stroke-dasharray: none; stroke-linecap: butt; stroke-dashoffset: 0; stroke-linejoin: miter; stroke-miterlimit: 4; fill: rgb(240,240,239); fill-rule: nonzero; opacity: 1;" vector-effect="non-scaling-stroke"  transform=" translate(-699.25, -822.55)" d="M 701.146851 824.22583 C 701.48175 824.398865 701.437439 824.617432 701.43573 824.728516 C 698.168091 825.343384 697.257629 823.375732 697.071045 820.268188 C 698.329041 821.264648 699.570496 822.658691 701.146851 824.22583 z" stroke-linecap="round" />
</g>
<g transform="matrix(1 0 0 1 648.57 870.67)"  >
<path style="stroke: none; stroke-width: 1; stroke-dasharray: none; stroke-linecap: butt; stroke-dashoffset: 0; stroke-linejoin: miter; stroke-miterlimit: 4; fill: rgb(240,240,239); fill-rule: nonzero; opacity: 1;" vector-effect="non-scaling-stroke"  transform=" translate(-696.11, -818.37)" d="M 695.156616 817.129517 C 695.801697 817.606567 696.39093 818.456665 697.055603 819.613831 C 696.454285 819.114746 695.777588 818.308655 695.156616 817.129517 z" stroke-linecap="round" />
</g>
<g transform="matrix(1 0 0 1 791.44 872.81)"  >
<path style="stroke: none; stroke-width: 1; stroke-dasharray: none; stroke-linecap: butt; stroke-dashoffset: 0; stroke-linejoin: miter; stroke-miterlimit: 4; fill: rgb(240,240,239); fill-rule: nonzero; opacity: 1;" vector-effect="non-scaling-stroke"  transform=" translate(-838.97, -820.51)" d="M 838.238953 821.909912 C 838.410217 821.073547 838.932312 820.186646 839.704163 819.115967 C 839.499207 819.907959 839.044495 820.883728 838.238953 821.909912 z" stroke-linecap="round" />
</g>
<g transform="matrix(1 0 0 1 793 870.38)"  >
<path style="stroke: none; stroke-width: 1; stroke-dasharray: none; stroke-linecap: butt; stroke-dashoffset: 0; stroke-linejoin: miter; stroke-miterlimit: 4; fill: rgb(240,240,239); fill-rule: nonzero; opacity: 1;" vector-effect="non-scaling-stroke"  transform=" translate(-840.54, -818.09)" d="M 840.21814 818.939819 C 840.1745 818.44928 840.414856 817.93988 840.861816 817.232544 C 840.879639 817.663452 840.690796 818.292175 840.21814 818.939819 z" stroke-linecap="round" />
</g>
<g transform="matrix(1 0 0 1 786.18 877.4)"  >
<path style="stroke: none; stroke-width: 1; stroke-dasharray: none; stroke-linecap: butt; stroke-dashoffset: 0; stroke-linejoin: miter; stroke-miterlimit: 4; fill: rgb(24,110,221); fill-rule: nonzero; opacity: 1;" vector-effect="non-scaling-stroke"  transform=" translate(-833.72, -825.11)" d="M 833.547119 825.35437 C 833.492126 825.181335 833.623352 824.952271 833.872314 824.864685 C 833.990051 825.006165 833.733276 825.29834 833.547119 825.35437 z" stroke-linecap="round" />
</g>
<g transform="matrix(1 0 0 1 683.74 827.14)"  >
<path style="stroke: none; stroke-width: 1; stroke-dasharray: none; stroke-linecap: butt; stroke-dashoffset: 0; stroke-linejoin: miter; stroke-miterlimit: 4; fill: rgb(35,121,236); fill-rule: nonzero; opacity: 1;" vector-effect="non-scaling-stroke"  transform=" translate(-731.27, -774.85)" d="M 732.351929 772.830627 C 731.959961 774.137085 731.251404 775.491821 730.185425 776.862671 C 730.563782 775.545532 731.299561 774.212219 732.351929 772.830627 z" stroke-linecap="round" />
</g>
<g transform="matrix(1 0 0 1 681.39 830.77)"  >
<path style="stroke: none; stroke-width: 1; stroke-dasharray: none; stroke-linecap: butt; stroke-dashoffset: 0; stroke-linejoin: miter; stroke-miterlimit: 4; fill: rgb(35,121,236); fill-rule: nonzero; opacity: 1;" vector-effect="non-scaling-stroke"  transform=" translate(-728.93, -778.48)" d="M 729.611084 777.033936 C 729.458374 777.871704 729.032898 778.871155 728.25415 779.933044 C 728.380066 779.062134 728.859131 778.128845 729.611084 777.033936 z" stroke-linecap="round" />
</g>
<g transform="matrix(1 0 0 1 687.71 820.07)"  >
<path style="stroke: none; stroke-width: 1; stroke-dasharray: none; stroke-linecap: butt; stroke-dashoffset: 0; stroke-linejoin: miter; stroke-miterlimit: 4; fill: rgb(253,250,232); fill-rule: nonzero; opacity: 1;" vector-effect="non-scaling-stroke"  transform=" translate(-735.25, -767.77)" d="M 735.602905 766.847778 C 735.655823 767.292786 735.442322 767.927002 734.903931 768.701843 C 734.831543 768.240723 735.084045 767.638855 735.602905 766.847778 z" stroke-linecap="round" />
</g>
</svg>